<svg xmlns="http://www.w3.org/2000/svg" width="111" height="32" viewBox="0 0 111 32">
  <defs>
    <style>
      .cls-1 {
        fill: #bd2340;
        fill-rule: evenodd;
      }
    </style>
  </defs>
  <path id="_-e-Shape_552" data-name="-e-Shape 552" class="cls-1" d="M17.906,18l-2.7-5.955h-0.08L12.474,18l-1.325,3L9.824,23.931a0.813,0.813,0,0,1-.784.541H6.689a0.477,0.477,0,0,1-.46-0.7L14.636,5.554a0.485,0.485,0,0,1,.459-0.3h0.27a0.461,0.461,0,0,1,.46.3L24.15,23.769a0.477,0.477,0,0,1-.46.7H21.339a0.778,0.778,0,0,1-.784-0.541l-1.324-2.923m78.321-3-2.7-5.955H94.768L92.119,18l-1.325,3-1.324,2.923a0.816,0.816,0,0,1-.785.541H86.335a0.478,0.478,0,0,1-.46-0.7L94.282,5.554a0.484,0.484,0,0,1,.459-0.3h0.27a0.46,0.46,0,0,1,.46.3L103.8,23.769a0.478,0.478,0,0,1-.46.7h-2.351a0.777,0.777,0,0,1-.784-0.541l-1.325-2.923M22.827,6.23a0.478,0.478,0,0,1,.46-0.7h2.757a0.5,0.5,0,0,1,.459.3l5.19,11.638h0.189l5.19-11.638a0.5,0.5,0,0,1,.459-0.3h2.757a0.478,0.478,0,0,1,.46.7L32.369,24.445a0.488,0.488,0,0,1-.46.3h-0.27a0.487,0.487,0,0,1-.459-0.3ZM45.12,6.041a0.531,0.531,0,0,1,.513-0.514h2.514a0.532,0.532,0,0,1,.513.514V23.958a0.532,0.532,0,0,1-.513.514H45.633a0.532,0.532,0,0,1-.513-0.514V6.041ZM52.433,23.47L60.488,8.91V8.8H53.731a0.531,0.531,0,0,1-.514-0.514V6.041a0.531,0.531,0,0,1,.514-0.514h11.3a0.532,0.532,0,0,1,.514.514V6.393L57.6,21.143V21.2h6.893a0.514,0.514,0,0,1,.514.515v2.246a0.514,0.514,0,0,1-.514.514H52.947a0.532,0.532,0,0,1-.514-0.514V23.47ZM69.167,6.23a0.478,0.478,0,0,1,.459-0.7h2.757a0.5,0.5,0,0,1,.46.3l5.189,11.638h0.189l5.19-11.638a0.5,0.5,0,0,1,.46-0.3h2.756a0.478,0.478,0,0,1,.46.7L78.708,24.445a0.486,0.486,0,0,1-.459.3h-0.27a0.486,0.486,0,0,1-.459-0.3Z"/>
</svg>
