<?xml version="1.0" encoding="utf-8"?>
<!-- Generator: Adobe Illustrator 19.2.1, SVG Export Plug-In . SVG Version: 6.00 Build 0)  -->
<svg version="1.1" id="layer" xmlns="http://www.w3.org/2000/svg" xmlns:xlink="http://www.w3.org/1999/xlink" x="0px" y="0px"
	 viewBox="0 0 652 652" style="enable-background:new 0 0 652 652;" xml:space="preserve">
<style type="text/css">
	.st0{fill:#F23A1D;}
	.st1{fill:#12295D;}
</style>
<path class="st0" d="M67.6,320.7H26.5l41.2,41.2V320.7z"/>
<path class="st1" d="M163.3,362h-15.9v-44.6l-23.9,23.9l-23.9-23.9V362H83.6V287H92l31.6,31.6l31.2-31.6h8.5V362z M257.1,361.8
	h-72.8V287H254v15.4h-53.7v12.3h35.3v15h-35.3v17.1h56.8V361.8z M355.5,361.8h-17.8L318,331.3h-26v30.5h-15.8v-74.4h50
	c7.4,0,13.1,1.8,17.6,5.3c4.9,3.9,7.4,9.4,7.4,16.6c0,4.9-1.4,9.2-4.1,13.1c-2.9,3.9-6.6,6.5-11.3,8.2L355.5,361.8L355.5,361.8z
	 M335,309.3c0-2-0.6-3.7-2-4.9c-1.4-1-3.9-1.6-7-1.6h-34v13.7h34c3.3,0,5.5-0.6,7-1.8C334.4,312.7,335,311.1,335,309.3z
	 M450.7,361.8H432l-27.7-37.2l-11.3,9.6v27.6h-16v-74.4h16v27.8l33-27.8h22.2l-32.4,27.4L450.7,361.8z M536.4,361.8h-67.2V287h16
	v59.8h51.2V361.8z M626.5,361.8h-72.8V287h69.7v15.4h-53.9v12.3h35.3v15h-35.3v17.1h57V361.8z"/>
</svg>
